<svg xmlns="http://www.w3.org/2000/svg" viewBox="0 0 513 513"><path d="M453.5 78c-3.333-14-9-24.667-17-32s-19.667-14-35-20c-15.333-6.667-37.333-12.667-66-18S280.666 0 257 0c-23.667 0-49.833 2.667-78.5 8s-50.667 11.333-66 18c-15.333 6-27 12.667-35 20s-13.333 18-16 32l-20 160v223h31v20c0 13.333 4.167 22.667 12.5 28s16.833 5.333 25.5 0 13-14.667 13-28v-20h256v20c0 13.333 5.167 22.667 15.5 28s20.5 5.333 30.5 0 15-14.667 15-28v-20h31V238l-18-160zm-303-39.5c2.667-5 7.334-7.5 14-7.5h205v30h-205c-6.667 0-11.333-2.5-14-7.5s-2.667-10 0-15zM77.5 234l17-122c1.333-6.667 7-10 17-10h293c10 0 15.667 3.333 17 10l17 124c.667 2 1 3.333 1 4 0 4.667-1.667 8.5-5 11.5s-7.667 4.5-13 4.5h-327c-5.333 0-9.667-1.667-13-5s-5-7.667-5-13c0-1.333.333-2.667 1-4zm53 149.5c-6.667 6.333-14.5 9.5-23.5 9.5s-16.833-3.167-23.5-9.5-10-14-10-23 3.333-16.667 10-23c6.667-6.333 14.5-9.5 23.5-9.5s16.833 3.167 23.5 9.5 10 14 10 23-3.333 16.667-10 23zm302 0c-6.667 6.333-14.5 9.5-23.5 9.5s-16.833-3.167-23.5-9.5-10-14-10-23 3.333-16.667 10-23S400 328 409 328s16.833 3.167 23.5 9.5 10 14 10 23-3.333 16.667-10 23z" fill="#010002"/></svg>