<?xml version="1.0" encoding="iso-8859-1"?><!DOCTYPE svg PUBLIC "-//W3C//DTD SVG 1.1//EN" "http://www.w3.org/Graphics/SVG/1.1/DTD/svg11.dtd"><svg xmlns="http://www.w3.org/2000/svg" xmlns:xlink="http://www.w3.org/1999/xlink"><symbol viewBox="0 0 513 513" id="bus" xmlns="http://www.w3.org/2000/svg"><path d="M453.5 78c-3.333-14-9-24.667-17-32s-19.667-14-35-20c-15.333-6.667-37.333-12.667-66-18S280.666 0 257 0c-23.667 0-49.833 2.667-78.5 8s-50.667 11.333-66 18c-15.333 6-27 12.667-35 20s-13.333 18-16 32l-20 160v223h31v20c0 13.333 4.167 22.667 12.5 28s16.833 5.333 25.5 0 13-14.667 13-28v-20h256v20c0 13.333 5.167 22.667 15.5 28s20.5 5.333 30.5 0 15-14.667 15-28v-20h31V238l-18-160zm-303-39.5c2.667-5 7.334-7.5 14-7.5h205v30h-205c-6.667 0-11.333-2.5-14-7.5s-2.667-10 0-15zM77.5 234l17-122c1.333-6.667 7-10 17-10h293c10 0 15.667 3.333 17 10l17 124c.667 2 1 3.333 1 4 0 4.667-1.667 8.5-5 11.5s-7.667 4.5-13 4.5h-327c-5.333 0-9.667-1.667-13-5s-5-7.667-5-13c0-1.333.333-2.667 1-4zm53 149.5c-6.667 6.333-14.5 9.5-23.5 9.5s-16.833-3.167-23.5-9.5-10-14-10-23 3.333-16.667 10-23c6.667-6.333 14.5-9.5 23.5-9.5s16.833 3.167 23.5 9.5 10 14 10 23-3.333 16.667-10 23zm302 0c-6.667 6.333-14.5 9.5-23.5 9.5s-16.833-3.167-23.5-9.5-10-14-10-23 3.333-16.667 10-23S400 328 409 328s16.833 3.167 23.5 9.5 10 14 10 23-3.333 16.667-10 23z" fill="#010002"/></symbol><symbol viewBox="0 0 21.9 21.9" id="cancel" xmlns="http://www.w3.org/2000/svg"><path d="M14.1 11.3c-.2-.2-.2-.5 0-.7l7.5-7.5c.2-.2.3-.5.3-.7s-.1-.5-.3-.7L20.2.3c-.2-.2-.5-.3-.7-.3-.3 0-.5.1-.7.3l-7.5 7.5c-.2.2-.5.2-.7 0L3.1.3C2.9.1 2.6 0 2.4 0s-.5.1-.7.3L.3 1.7c-.2.2-.3.5-.3.7s.1.5.3.7l7.5 7.5c.2.2.2.5 0 .7L.3 18.8c-.2.2-.3.5-.3.7s.1.5.3.7l1.4 1.4c.2.2.5.3.7.3s.5-.1.7-.3l7.5-7.5c.2-.2.5-.2.7 0l7.5 7.5c.2.2.5.3.7.3s.5-.1.7-.3l1.4-1.4c.2-.2.3-.5.3-.7s-.1-.5-.3-.7l-7.5-7.5z"/></symbol><symbol viewBox="0 0 932.179 932.179" id="cogs" xmlns="http://www.w3.org/2000/svg"><path d="M61.2 341.538c4.9 16.8 11.7 33 20.3 48.2l-24.5 30.9c-8 10.1-7.1 24.5 1.9 33.6l42.2 42.2c9.1 9.1 23.5 9.899 33.6 1.899l30.7-24.3a223.05 223.05 0 0 0 50.1 21.2l4.6 39.5c1.5 12.8 12.3 22.4 25.1 22.4h59.7c12.8 0 23.6-9.601 25.1-22.4l4.4-38.1c18.8-4.9 36.8-12.2 53.7-21.7l29.7 23.5c10.1 8 24.5 7.1 33.6-1.9l42.2-42.2c9.1-9.1 9.9-23.5 1.9-33.6l-23.1-29.3c9.6-16.601 17.1-34.3 22.1-52.8l35.6-4.1c12.801-1.5 22.4-12.3 22.4-25.1v-59.7c0-12.8-9.6-23.6-22.4-25.1l-35.1-4.1c-4.801-18.3-12-35.8-21.199-52.2l21.6-27.3c8-10.1 7.1-24.5-1.9-33.6l-42.1-42.1c-9.1-9.1-23.5-9.9-33.6-1.9l-26.5 21c-17.2-10.1-35.601-17.8-54.9-23l-4-34.3c-1.5-12.8-12.3-22.4-25.1-22.4h-59.7c-12.8 0-23.6 9.6-25.1 22.4l-4 34.3c-19.8 5.3-38.7 13.3-56.3 23.8l-27.5-21.8c-10.1-8-24.5-7.1-33.6 1.9l-42.2 42.2c-9.1 9.1-9.9 23.5-1.9 33.6l23 29.1c-9.2 16.6-16.2 34.3-20.8 52.7l-36.8 4.2c-12.8 1.5-22.4 12.3-22.4 25.1v59.7c0 12.8 9.6 23.6 22.4 25.1l38.799 4.501zm216.3-161.5c54.4 0 98.7 44.3 98.7 98.7s-44.3 98.7-98.7 98.7c-54.399 0-98.7-44.3-98.7-98.7s44.3-98.7 98.7-98.7z"/><path d="M867.699 356.238l-31.5-26.6c-9.699-8.2-24-7.8-33.199.9l-17.4 16.3c-14.699-7.1-30.299-12.1-46.4-15l-4.898-24c-2.5-12.4-14-21-26.602-20l-41.1 3.5c-12.6 1.1-22.5 11.4-22.9 24.1l-.799 24.4c-15.801 5.7-30.701 13.5-44.301 23.3l-20.799-13.8c-10.602-7-24.701-5-32.9 4.7l-26.6 31.7c-8.201 9.7-7.801 24 .898 33.2l18.201 19.399a186.39 186.39 0 0 0-13.4 44.4l-26 5.3c-12.4 2.5-21 14-20 26.601l3.5 41.1c1.1 12.6 11.4 22.5 24.1 22.9l28.1.899c5.102 13.4 11.801 26.101 19.9 38l-15.699 23.7c-7 10.6-5 24.7 4.699 32.9l31.5 26.6c9.701 8.2 24 7.8 33.201-.9l20.6-19.3c13.5 6.3 27.699 11 42.299 13.8l5.701 28.2c2.5 12.4 14 21 26.6 20l41.1-3.5c12.6-1.1 22.5-11.399 22.9-24.1l.9-27.601c15-5.3 29.199-12.5 42.299-21.399l22.701 15c10.6 7 24.699 5 32.9-4.7l26.6-31.5c8.199-9.7 7.799-24-.9-33.2L872.7 592.138c6.701-14.2 11.602-29.2 14.4-44.601l25-5.1c12.4-2.5 21-14 20-26.601l-3.5-41.1c-1.1-12.6-11.4-22.5-24.1-22.9l-25.1-.8a181.601 181.601 0 0 0-20.9-41.2l13.699-20.6c7.201-10.598 5.201-24.798-4.5-32.998zM712.801 593.837c-44.4 3.801-83.602-29.3-87.301-73.699-3.801-44.4 29.301-83.601 73.699-87.301 44.4-3.8 83.602 29.301 87.301 73.7 3.801 44.401-29.301 83.601-73.699 87.3zM205 704.438c-12.6 1.3-22.3 11.899-22.4 24.6l-.3 25.3c-.2 12.7 9.2 23.5 21.8 25.101l18.6 2.399c3.1 11.301 7.5 22.101 13.2 32.301l-12 14.8c-8 9.899-7.4 24.1 1.5 33.2l17.7 18.1c8.9 9.1 23.1 10.1 33.2 2.3l14.899-11.5c10.5 6.2 21.601 11.101 33.2 14.5l2 19.2c1.3 12.6 11.9 22.3 24.6 22.4l25.301.3c12.699.2 23.5-9.2 25.1-21.8l2.3-18.2c12.601-3.101 24.601-7.8 36-14l14 11.3c9.9 8 24.101 7.4 33.201-1.5l18.1-17.7c9.1-8.899 10.1-23.1 2.301-33.2L496.6 818.438c6.6-11 11.701-22.7 15.201-35l16.6-1.7c12.6-1.3 22.299-11.9 22.4-24.6l.299-25.301c.201-12.699-9.199-23.5-21.799-25.1l-16.201-2.1c-3.1-12.2-7.699-24-13.699-35l10.1-12.4c8-9.9 7.4-24.1-1.5-33.2l-17.699-18.1a24.966 24.966 0 0 0-33.201-2.3l-12.101 9.3a147.09 147.09 0 0 0-36.399-15.8l-1.601-15.7c-1.3-12.601-11.899-22.3-24.6-22.4l-25.3-.3c-12.7-.2-23.5 9.2-25.101 21.8l-2 15.601a151.042 151.042 0 0 0-37.699 15.399l-12.5-10.2c-9.9-8-24.101-7.399-33.201 1.5l-18.2 17.801a24.965 24.965 0 0 0-2.3 33.199l10.7 13.801c-6.2 11-11.1 22.699-14.3 35l-17.499 1.8zm163.3-28.601c36.3.4 65.399 30.301 65 66.601-.4 36.3-30.301 65.399-66.601 65-36.3-.4-65.399-30.3-65-66.601.401-36.299 30.301-65.399 66.601-65z"/></symbol><symbol viewBox="0 0 451.847 451.847" id="down-arrow" xmlns="http://www.w3.org/2000/svg"><path d="M225.923 354.706c-8.098 0-16.195-3.092-22.369-9.263L9.27 151.157c-12.359-12.359-12.359-32.397 0-44.751 12.354-12.354 32.388-12.354 44.748 0l171.905 171.915 171.906-171.909c12.359-12.354 32.391-12.354 44.744 0 12.365 12.354 12.365 32.392 0 44.751L248.292 345.449c-6.177 6.172-14.274 9.257-22.369 9.257z"/></symbol><symbol viewBox="0 0 511.626 511.626" id="envelope" xmlns="http://www.w3.org/2000/svg"><path d="M49.106 178.729c6.472 4.567 25.981 18.131 58.528 40.685 32.548 22.554 57.482 39.92 74.803 52.099 1.903 1.335 5.946 4.237 12.131 8.71 6.186 4.476 11.326 8.093 15.416 10.852 4.093 2.758 9.041 5.852 14.849 9.277 5.806 3.422 11.279 5.996 16.418 7.7 5.14 1.718 9.898 2.569 14.275 2.569h.575c4.377 0 9.137-.852 14.277-2.569 5.137-1.704 10.615-4.281 16.416-7.7 5.804-3.429 10.752-6.52 14.845-9.277 4.093-2.759 9.229-6.376 15.417-10.852 6.184-4.477 10.232-7.375 12.135-8.71 17.508-12.179 62.051-43.11 133.615-92.79 13.894-9.703 25.502-21.411 34.827-35.116 9.332-13.699 13.993-28.07 13.993-43.105 0-12.564-4.523-23.319-13.565-32.264-9.041-8.947-19.749-13.418-32.117-13.418H45.679c-14.655 0-25.933 4.948-33.832 14.844C3.949 79.562 0 91.934 0 106.779c0 11.991 5.236 24.985 15.703 38.974 10.466 13.99 21.604 24.983 33.403 32.976z"/><path d="M483.072 209.275c-62.424 42.251-109.824 75.087-142.177 98.501-10.849 7.991-19.65 14.229-26.409 18.699-6.759 4.473-15.748 9.041-26.98 13.702-11.228 4.668-21.692 6.995-31.401 6.995h-.578c-9.707 0-20.177-2.327-31.405-6.995-11.228-4.661-20.223-9.229-26.98-13.702-6.755-4.47-15.559-10.708-26.407-18.699-25.697-18.842-72.995-51.68-141.896-98.501C17.987 202.047 8.375 193.762 0 184.437v226.685c0 12.57 4.471 23.319 13.418 32.265 8.945 8.949 19.701 13.422 32.264 13.422h420.266c12.56 0 23.315-4.473 32.261-13.422 8.949-8.949 13.418-19.694 13.418-32.265V184.437c-8.186 9.132-17.7 17.417-28.555 24.838z"/></symbol><symbol viewBox="0 0 430.113 430.114" id="facebook" xmlns="http://www.w3.org/2000/svg"><path d="M158.081 83.3v59.218h-43.385v72.412h43.385v215.183h89.122V214.936h59.805s5.601-34.721 8.316-72.685H247.54V92.74c0-7.4 9.717-17.354 19.321-17.354h48.557V.001h-66.021C155.878-.004 158.081 72.48 158.081 83.3z"/></symbol><symbol viewBox="0 0 475.092 475.092" id="google" xmlns="http://www.w3.org/2000/svg"><path d="M273.372 302.498a148.384 148.384 0 0 0-16.7-18.842c-6.091-5.804-12.183-11.088-18.271-15.845-6.092-4.757-11.659-9.329-16.702-13.709-5.042-4.374-9.135-8.945-12.275-13.702-3.14-4.757-4.711-9.61-4.711-14.558 0-6.855 2.19-13.278 6.567-19.274 4.377-5.996 9.707-11.799 15.986-17.417 6.28-5.617 12.559-11.753 18.844-18.415 6.276-6.665 11.604-15.465 15.985-26.412 4.373-10.944 6.563-23.458 6.563-37.542 0-16.75-3.713-32.835-11.136-48.25-7.423-15.418-17.89-27.412-31.405-35.976h38.54L303.2 0H178.441c-17.699 0-35.498 1.906-53.384 5.72-26.453 5.9-48.723 19.368-66.806 40.397-18.08 21.033-27.122 44.873-27.122 71.52 0 28.171 10.138 51.583 30.406 70.233 20.269 18.649 44.585 27.978 72.945 27.978 5.71 0 12.371-.478 19.985-1.427-.381 1.521-1.043 3.567-1.997 6.136s-1.715 4.62-2.286 6.14c-.57 1.521-1.047 3.375-1.425 5.566a38.99 38.99 0 0 0-.571 6.71c0 12.563 6.086 26.744 18.271 42.541-14.465.387-28.737 1.67-42.825 3.86-14.084 2.19-28.833 5.616-44.252 10.28-15.417 4.661-29.217 11.42-41.396 20.27-12.182 8.854-21.317 19.366-27.408 31.549C3.533 361.559.01 374.405.01 386.017c0 12.751 2.857 24.314 8.565 34.69 5.708 10.369 13.035 18.842 21.982 25.406 8.945 6.57 19.273 12.083 30.978 16.562 11.704 4.47 23.315 7.659 34.829 9.562 11.516 1.903 22.888 2.854 34.119 2.854 51.007 0 90.981-12.464 119.909-37.397 26.648-23.223 39.971-50.062 39.971-80.517 0-10.855-1.57-20.984-4.712-30.409-3.141-9.431-7.231-17.514-12.279-24.27zM163.311 198.722c-9.707 0-18.937-2.475-27.694-7.426-8.757-4.95-16.18-11.374-22.27-19.273-6.088-7.898-11.418-16.796-15.987-26.695-4.567-9.896-7.944-19.792-10.135-29.692-2.19-9.895-3.284-19.318-3.284-28.265 0-18.271 4.854-33.974 14.562-47.108 9.705-13.134 23.411-19.701 41.112-19.701 12.563 0 23.935 3.899 34.118 11.704 10.183 7.804 18.177 17.701 23.984 29.692a187.496 187.496 0 0 1 13.417 37.257c3.14 12.847 4.711 24.983 4.711 36.403 0 19.036-4.139 34.317-12.419 45.833-8.282 11.513-21.651 17.271-40.115 17.271zm78.94 214.401c-5.23 8.949-12.319 15.94-21.267 20.981-8.946 5.048-18.509 8.758-28.693 11.14-10.183 2.385-20.889 3.572-32.12 3.572-12.182 0-24.27-1.431-36.258-4.284-11.99-2.851-23.459-7.187-34.403-12.991-10.944-5.8-19.795-13.798-26.551-23.982-6.757-10.184-10.135-21.744-10.135-34.69 0-11.419 2.568-21.601 7.708-30.55 5.142-8.945 11.709-16.084 19.702-21.408 7.994-5.332 17.319-9.713 27.979-13.131 10.66-3.433 20.937-5.808 30.833-7.139 9.895-1.335 19.985-1.995 30.262-1.995 6.283 0 11.043.191 14.277.567 1.143.767 4.043 2.759 8.708 5.996s7.804 5.428 9.423 6.57c1.615 1.137 4.567 3.326 8.85 6.563 4.281 3.237 7.327 5.661 9.135 7.279 1.803 1.618 4.421 4.045 7.849 7.279 3.424 3.237 5.948 6.043 7.566 8.422a982.05 982.05 0 0 0 5.996 8.702c2.38 3.433 4.043 6.715 4.998 9.855a158.985 158.985 0 0 1 2.707 10.277c.855 3.72 1.283 7.569 1.283 11.57.005 11.987-2.613 22.456-7.849 31.397z"/><path d="M401.998 73.089V0h-36.549v73.089h-73.091v36.547h73.091v73.089h36.549v-73.089h73.083V73.089z"/></symbol><symbol viewBox="0 0 27.442 27.442" id="iphone" xmlns="http://www.w3.org/2000/svg"><path d="M19.494 0H7.948a1.997 1.997 0 0 0-1.997 1.999v23.446c0 1.102.892 1.997 1.997 1.997h11.546a1.998 1.998 0 0 0 1.997-1.997V1.999A1.999 1.999 0 0 0 19.494 0zm-8.622 1.214h5.7c.144 0 .261.215.261.481s-.117.482-.261.482h-5.7c-.145 0-.26-.216-.26-.482s.115-.481.26-.481zm2.85 24.255a1.275 1.275 0 1 1 0-2.55 1.275 1.275 0 0 1 0 2.55zm6.273-4.369H7.448V3.373h12.547V21.1z"/></symbol><symbol viewBox="0 0 97.385 97.385" id="laptop" xmlns="http://www.w3.org/2000/svg"><path d="M97.265 71.261a.495.495 0 0 0-.374-.172H.494a.494.494 0 0 0-.489.568c.014.09 1.468 9.016 12.753 9.016h71.869c11.284 0 12.738-8.926 12.753-9.016a.501.501 0 0 0-.115-.396zm-41.323 6.286h-14.5v-3.334h14.5v3.334zM10.507 67.619h76.37a2 2 0 0 0 2-2V18.713a2 2 0 0 0-2-2h-76.37a2 2 0 0 0-2 2v46.906a2 2 0 0 0 2 2zm5-43.906h66.37v36.906h-66.37V23.713z"/></symbol><symbol viewBox="0 0 306 306" id="left-arrow" xmlns="http://www.w3.org/2000/svg"><path d="M247.35 270.3L130.05 153l117.3-117.3L211.65 0l-153 153 153 153z"/></symbol><symbol viewBox="0 0 430.114 430.114" id="mark" xmlns="http://www.w3.org/2000/svg"><path d="M356.208 107.051c-1.531-5.738-4.64-11.852-6.94-17.205C321.746 23.704 261.611 0 213.055 0 148.054 0 76.463 43.586 66.905 133.427v18.355c0 .766.264 7.647.639 11.089 5.358 42.816 39.143 88.32 64.375 131.136 27.146 45.873 55.314 90.999 83.221 136.106 17.208-29.436 34.354-59.259 51.17-87.933 4.583-8.415 9.903-16.825 14.491-24.857 3.058-5.348 8.9-10.696 11.569-15.672 27.145-49.699 70.838-99.782 70.838-149.104v-20.262c.001-5.347-6.627-24.081-7-25.234zm-141.963 92.142c-19.107 0-40.021-9.554-50.344-35.939-1.538-4.2-1.414-12.617-1.414-13.388v-11.852c0-33.636 28.56-48.932 53.406-48.932 30.588 0 54.245 24.472 54.245 55.06 0 30.587-25.305 55.051-55.893 55.051z"/></symbol><symbol viewBox="0 0 24 24" id="menu" xmlns="http://www.w3.org/2000/svg"><path d="M24 3c0-.6-.4-1-1-1H1c-.6 0-1 .4-1 1v2c0 .6.4 1 1 1h22c.6 0 1-.4 1-1V3zM24 11c0-.6-.4-1-1-1H1c-.6 0-1 .4-1 1v2c0 .6.4 1 1 1h22c.6 0 1-.4 1-1v-2zM24 19c0-.6-.4-1-1-1H1c-.6 0-1 .4-1 1v2c0 .6.4 1 1 1h22c.6 0 1-.4 1-1v-2z"/></symbol><symbol viewBox="0 0 578.106 578.106" id="phone" xmlns="http://www.w3.org/2000/svg"><path d="M577.83 456.128c1.225 9.385-1.635 17.545-8.568 24.48l-81.396 80.781c-3.672 4.08-8.465 7.551-14.381 10.404-5.916 2.857-11.729 4.693-17.439 5.508-.408 0-1.635.105-3.676.309-2.037.203-4.689.307-7.953.307-7.754 0-20.301-1.326-37.641-3.979s-38.555-9.182-63.645-19.584c-25.096-10.404-53.553-26.012-85.376-46.818-31.823-20.805-65.688-49.367-101.592-85.68-28.56-28.152-52.224-55.08-70.992-80.783-18.768-25.705-33.864-49.471-45.288-71.299-11.425-21.828-19.993-41.616-25.705-59.364S4.59 177.362 2.55 164.51-.306 141.56.102 134.216c.408-7.344.612-11.424.612-12.24.816-5.712 2.652-11.526 5.508-17.442s6.324-10.71 10.404-14.382L98.022 8.756c5.712-5.712 12.24-8.568 19.584-8.568 5.304 0 9.996 1.53 14.076 4.59s7.548 6.834 10.404 11.322l65.484 124.236c3.672 6.528 4.692 13.668 3.06 21.42-1.632 7.752-5.1 14.28-10.404 19.584l-29.988 29.988c-.816.816-1.53 2.142-2.142 3.978s-.918 3.366-.918 4.59c1.632 8.568 5.304 18.36 11.016 29.376 4.896 9.792 12.444 21.726 22.644 35.802s24.684 30.293 43.452 48.653c18.36 18.77 34.68 33.354 48.96 43.76 14.277 10.4 26.215 18.053 35.803 22.949 9.588 4.896 16.932 7.854 22.031 8.871l7.648 1.531c.816 0 2.145-.307 3.979-.918 1.836-.613 3.162-1.326 3.979-2.143l34.883-35.496c7.348-6.527 15.912-9.791 25.705-9.791 6.938 0 12.443 1.223 16.523 3.672h.611l118.115 69.768c8.571 5.308 13.67 12.038 15.303 20.198z"/></symbol><symbol viewBox="0 0 486.392 486.392" id="pinterest" xmlns="http://www.w3.org/2000/svg"><path d="M430.149 135.248C416.865 39.125 321.076-9.818 218.873 1.642 138.071 10.701 57.512 76.03 54.168 169.447c-2.037 57.029 14.136 99.801 68.399 111.84 23.499-41.586-7.569-50.676-12.433-80.802C90.222 77.367 252.16-6.718 336.975 79.313c58.732 59.583 20.033 242.77-74.57 223.71-90.621-18.179 44.383-164.005-27.937-192.611-58.793-23.286-90.013 71.135-62.137 118.072-16.355 80.711-51.557 156.709-37.3 257.909 46.207-33.561 61.802-97.734 74.57-164.704 23.225 14.136 35.659 28.758 65.268 31.038 109.195 8.48 170.267-109.014 155.28-217.479z" fill="#010002"/></symbol><symbol viewBox="0 0 306 306" id="right-arrow" xmlns="http://www.w3.org/2000/svg"><path d="M94.35 0l-35.7 35.7L175.95 153 58.65 270.3l35.7 35.7 153-153z"/></symbol><symbol viewBox="0 0 438.533 438.533" id="time" xmlns="http://www.w3.org/2000/svg"><path d="M409.133 109.203c-19.608-33.592-46.205-60.189-79.798-79.796C295.736 9.801 259.058 0 219.273 0c-39.781 0-76.47 9.801-110.063 29.407-33.595 19.604-60.192 46.201-79.8 79.796C9.801 142.8 0 179.489 0 219.267c0 39.78 9.804 76.463 29.407 110.062 19.607 33.592 46.204 60.189 79.799 79.798 33.597 19.605 70.283 29.407 110.063 29.407s76.47-9.802 110.065-29.407c33.593-19.602 60.189-46.206 79.795-79.798 19.603-33.596 29.403-70.284 29.403-110.062.001-39.782-9.8-76.472-29.399-110.064zm-55.391 188.005c-13.894 23.791-32.736 42.64-56.527 56.534-23.791 13.894-49.771 20.834-77.945 20.834-28.167 0-54.149-6.94-77.943-20.834-23.791-13.895-42.633-32.743-56.527-56.534-13.897-23.791-20.843-49.772-20.843-77.941 0-28.171 6.949-54.152 20.843-77.943 13.891-23.791 32.738-42.637 56.527-56.53 23.791-13.895 49.772-20.84 77.943-20.84 28.173 0 54.154 6.945 77.945 20.84 23.791 13.894 42.634 32.739 56.527 56.53 13.895 23.791 20.838 49.772 20.838 77.943 0 28.169-6.943 54.15-20.838 77.941z"/><path d="M246.68 109.631h-18.274c-2.669 0-4.853.859-6.57 2.57-1.706 1.713-2.565 3.9-2.565 6.565v100.5h-63.953c-2.667 0-4.853.855-6.567 2.564-1.712 1.712-2.568 3.901-2.568 6.571v18.271c0 2.666.856 4.856 2.568 6.567 1.715 1.711 3.905 2.566 6.567 2.566h91.367c2.662 0 4.853-.855 6.561-2.566 1.711-1.711 2.573-3.901 2.573-6.567V118.766c0-2.663-.862-4.849-2.573-6.565-1.71-1.711-3.9-2.57-6.566-2.57z"/></symbol><symbol viewBox="0 0 512.002 512.002" id="twitter" xmlns="http://www.w3.org/2000/svg"><path d="M512.002 97.211c-18.84 8.354-39.082 14.001-60.33 16.54 21.686-13 38.342-33.585 46.186-58.115a210.29 210.29 0 0 1-66.705 25.49c-19.16-20.415-46.461-33.17-76.674-33.17-58.011 0-105.042 47.029-105.042 105.039 0 8.233.929 16.25 2.72 23.939-87.3-4.382-164.701-46.2-216.509-109.753-9.042 15.514-14.223 33.558-14.223 52.809 0 36.444 18.544 68.596 46.73 87.433a104.614 104.614 0 0 1-47.577-13.139c-.01.438-.01.878-.01 1.321 0 50.894 36.209 93.348 84.261 103a105.245 105.245 0 0 1-27.674 3.687c-6.769 0-13.349-.66-19.764-1.888 13.368 41.73 52.16 72.104 98.126 72.949-35.95 28.176-81.243 44.967-130.458 44.967-8.479 0-16.84-.496-25.058-1.471 46.486 29.807 101.701 47.197 161.021 47.197 193.211 0 298.868-160.062 298.868-298.872 0-4.554-.104-9.084-.305-13.59 20.526-14.809 38.335-33.309 52.417-54.373z"/></symbol><symbol viewBox="0 0 284.929 284.929" id="up-arrow" xmlns="http://www.w3.org/2000/svg"><path d="M282.082 195.285L149.028 62.24c-1.901-1.903-4.088-2.856-6.562-2.856s-4.665.953-6.567 2.856L2.856 195.285C.95 197.191 0 199.378 0 201.853c0 2.474.953 4.664 2.856 6.566l14.272 14.271c1.903 1.903 4.093 2.854 6.567 2.854s4.664-.951 6.567-2.854l112.204-112.202 112.208 112.209c1.902 1.903 4.093 2.848 6.563 2.848 2.478 0 4.668-.951 6.57-2.848l14.274-14.277c1.902-1.902 2.847-4.093 2.847-6.566.001-2.476-.944-4.666-2.846-6.569z"/></symbol><symbol viewBox="0 0 438.529 438.529" id="user" xmlns="http://www.w3.org/2000/svg"><path d="M219.265 219.267c30.271 0 56.108-10.71 77.518-32.121 21.412-21.411 32.12-47.248 32.12-77.515 0-30.262-10.708-56.1-32.12-77.516C275.366 10.705 249.528 0 219.265 0S163.16 10.705 141.75 32.115c-21.414 21.416-32.121 47.253-32.121 77.516 0 30.267 10.707 56.104 32.121 77.515 21.416 21.411 47.251 32.121 77.515 32.121z"/><path d="M419.258 335.036c-.668-9.609-2.002-19.985-3.997-31.121-1.999-11.136-4.524-21.457-7.57-30.978-3.046-9.514-7.139-18.794-12.278-27.836-5.137-9.041-11.037-16.748-17.703-23.127-6.666-6.377-14.801-11.465-24.406-15.271-9.617-3.805-20.229-5.711-31.84-5.711-1.711 0-5.709 2.046-11.991 6.139a2716.072 2716.072 0 0 1-21.266 13.708c-7.898 5.037-18.182 9.609-30.834 13.695-12.658 4.093-25.361 6.14-38.118 6.14-12.752 0-25.456-2.047-38.112-6.14-12.655-4.086-22.936-8.658-30.835-13.695a2784.143 2784.143 0 0 1-21.267-13.708c-6.283-4.093-10.278-6.139-11.991-6.139-11.61 0-22.222 1.906-31.833 5.711-9.613 3.806-17.749 8.898-24.412 15.271-6.661 6.379-12.562 14.086-17.699 23.127-5.137 9.042-9.229 18.326-12.275 27.836-3.045 9.521-5.568 19.842-7.566 30.978-2 11.136-3.332 21.505-3.999 31.121a427.742 427.742 0 0 0-.998 29.554c0 22.836 6.949 40.875 20.842 54.104 13.896 13.224 32.36 19.835 55.39 19.835h249.533c23.028 0 41.49-6.611 55.388-19.835 13.901-13.229 20.845-31.265 20.845-54.104-.002-10.088-.334-19.938-1.008-29.554z"/></symbol></svg>